<mxfile host="app.diagrams.net" modified="2023-12-13T16:30:37.619Z" agent="Mozilla/5.0 (Windows NT 10.0; Win64; x64) AppleWebKit/537.36 (KHTML, like Gecko) Chrome/119.0.0.0 Safari/537.36 OPR/105.0.0.0" version="22.1.8" etag="wPAiIAd14HU3y8Skqy4m" type="github">
  <diagram name="PÃ¡gina-1" id="l2NO8KykoGGfuUg7ArQM">
    <mxGraphModel>
      <root>
        <mxCell id="0" />
        <mxCell id="1" parent="0" />
      </root>
    </mxGraphModel>
  </diagram>
</mxfile>
